<?xml version="1.0" encoding="UTF-8" standalone="no"?>
<svg
   xmlns:dc="http://purl.org/dc/elements/1.1/"
   xmlns:cc="http://creativecommons.org/ns#"
   xmlns:rdf="http://www.w3.org/1999/02/22-rdf-syntax-ns#"
   xmlns:svg="http://www.w3.org/2000/svg"
   xmlns="http://www.w3.org/2000/svg"
   xmlns:sodipodi="http://sodipodi.sourceforge.net/DTD/sodipodi-0.dtd"
   xmlns:inkscape="http://www.inkscape.org/namespaces/inkscape"
   id="Layer_1"
   data-name="Layer 1"
   viewBox="0 0 120 120"
   version="1.1"
   sodipodi:docname="Icon-Cancel.svg"
   inkscape:version="0.92.2 (5c3e80d, 2017-08-06)">
  <metadata
     id="metadata843">
    <rdf:RDF>
      <cc:Work
         rdf:about="">
        <dc:format>image/svg+xml</dc:format>
        <dc:type
           rdf:resource="http://purl.org/dc/dcmitype/StillImage" />
        <dc:title>Icon-Pause</dc:title>
      </cc:Work>
    </rdf:RDF>
  </metadata>
  <sodipodi:namedview
     pagecolor="#ffffff"
     bordercolor="#666666"
     borderopacity="1"
     objecttolerance="10"
     gridtolerance="10"
     guidetolerance="10"
     inkscape:pageopacity="0"
     inkscape:pageshadow="2"
     inkscape:window-width="1920"
     inkscape:window-height="1017"
     id="namedview841"
     showgrid="false"
     inkscape:zoom="4.9968879"
     inkscape:cx="31.611891"
     inkscape:cy="76.026127"
     inkscape:window-x="-8"
     inkscape:window-y="-8"
     inkscape:window-maximized="1"
     inkscape:current-layer="Layer_1" />
  <defs
     id="defs832">
    <style
       id="style830">.cls-1{fill:#fff;fill-rule:evenodd;}</style>
  </defs>
  <title
     id="title834">Icon-Pause</title>
  <path
     class="cls-1"
     d="m 33.51883,107.6802 a 7.49,7.49 0 0 1 -2.467803,1.64756 7.3,7.3 0 0 1 -2.821356,0.57275 7.88,7.88 0 0 1 -2.863783,-0.54447 7.18,7.18 0 0 1 -2.489016,-1.62634 L 12.213702,97.066527 a 6.85,6.85 0 0 1 -1.59099,-2.453661 8,8 0 0 1 -0.516188,-2.835498 7.25,7.25 0 0 1 0.565685,-2.828427 7.51,7.51 0 0 1 1.647559,-2.467803 L 86.466985,12.333921 a 7.52,7.52 0 0 1 2.467803,-1.647559 7.2,7.2 0 0 1 2.821356,-0.558614 7.92,7.92 0 0 1 2.84964,0.502046 6.71,6.71 0 0 1 2.460732,1.583919 l 10.649024,10.649028 a 7,7 0 0 1 1.61928,2.496087 7.83,7.83 0 0 1 0.5374,2.870854 7.25,7.25 0 0 1 -0.56569,2.814284 7.5,7.5 0 0 1 -1.64048,2.489016 z"
     id="path836"
     inkscape:connector-curvature="0"
     style="fill:#ffffff;fill-rule:evenodd" />
  <path
     class="cls-1"
     d="m 107.67672,86.68477 v 0 a 7.63,7.63 0 0 1 1.65463,2.460732 7.38,7.38 0 0 1 0.55861,2.835498 7.77,7.77 0 0 1 -0.5374,2.856711 7.22,7.22 0 0 1 -1.62634,2.489009 l -10.606599,10.6066 a 7.13,7.13 0 0 1 -2.481944,1.61928 7.76,7.76 0 0 1 -2.863783,0.54447 7.33,7.33 0 0 1 -2.828427,-0.56569 7.49,7.49 0 0 1 -2.460732,-1.65463 L 12.337522,33.729539 a 7.49,7.49 0 0 1 -1.65463,-2.460731 7.28,7.28 0 0 1 -0.558615,-2.821356 7.72,7.72 0 0 1 0.523259,-2.870854 7,7 0 0 1 1.619275,-2.496087 L 22.873413,12.47391 a 7.07,7.07 0 0 1 2.496079,-1.619268 7.72,7.72 0 0 1 2.863783,-0.53033 7.33,7.33 0 0 1 2.828427,0.551543 7.64,7.64 0 0 1 2.467803,1.661701 z"
     id="path838"
     inkscape:connector-curvature="0"
     style="fill:#ffffff;fill-rule:evenodd" />
</svg>
