<?xml version="1.0" encoding="UTF-8" standalone="no"?>
<svg
   xmlns:dc="http://purl.org/dc/elements/1.1/"
   xmlns:cc="http://creativecommons.org/ns#"
   xmlns:rdf="http://www.w3.org/1999/02/22-rdf-syntax-ns#"
   xmlns:svg="http://www.w3.org/2000/svg"
   xmlns="http://www.w3.org/2000/svg"
   xmlns:sodipodi="http://sodipodi.sourceforge.net/DTD/sodipodi-0.dtd"
   xmlns:inkscape="http://www.inkscape.org/namespaces/inkscape"
   viewBox="0 0 100 50"
   version="1.1"
   id="svg831"
   sodipodi:docname="Icon-Home-UnknownReel.svg"
   inkscape:version="0.92.2 (5c3e80d, 2017-08-06)">
  <metadata
     id="metadata837">
    <rdf:RDF>
      <cc:Work
         rdf:about="">
        <dc:format>image/svg+xml</dc:format>
        <dc:type
           rdf:resource="http://purl.org/dc/dcmitype/StillImage" />
        <dc:title>Icon-Home-SmartReel</dc:title>
      </cc:Work>
    </rdf:RDF>
  </metadata>
  <defs
     id="defs835" />
  <sodipodi:namedview
     pagecolor="#ffffff"
     bordercolor="#666666"
     borderopacity="1"
     objecttolerance="10"
     gridtolerance="10"
     guidetolerance="10"
     inkscape:pageopacity="0"
     inkscape:pageshadow="2"
     inkscape:window-width="1920"
     inkscape:window-height="1017"
     id="namedview833"
     showgrid="false"
     inkscape:zoom="14.14"
     inkscape:cx="50"
     inkscape:cy="25"
     inkscape:window-x="-8"
     inkscape:window-y="-8"
     inkscape:window-maximized="1"
     inkscape:current-layer="svg831" />
  <title
     id="title827">Icon-Home-SmartReel</title>
  <path
     d="m 100,50 c 0,-1 0,-2 -0.09,-3.07 A 50,50 0 0 0 0,50 Z M 90.55,33.62 a 2.91,2.91 0 0 1 3.66,1.85 46.64,46.64 0 0 1 1.79,7.38 1.18,1.18 0 0 1 0,0.27 2.89,2.89 0 0 1 -2.71,3.06 l -9.57,0.59 a 2.89,2.89 0 0 1 -3,-2.37 32.59,32.59 0 0 0 -1,-4.14 8.45,8.45 0 0 0 -1,-2.07 0.62,0.62 0 0 1 -0.1,-0.39 0.59,0.59 0 0 1 0.64,-0.51 8.82,8.82 0 0 0 4.45,-0.67 l 6.67,-2.9 z M 68.93,24.4 a 8.62,8.62 0 0 0 3.5,-2.8 l 4.33,-5.85 c 0.06,-0.07 0.11,-0.15 0.17,-0.21 a 2.89,2.89 0 0 1 4.07,-0.23 45.36,45.36 0 0 1 5.23,5.51 2.11,2.11 0 0 1 0.17,0.22 2.89,2.89 0 0 1 -0.82,4 l -8,5.3 a 2.9,2.9 0 0 1 -3.81,-0.54 30.66,30.66 0 0 0 -3,-3.06 8.89,8.89 0 0 0 -1.92,-1.3 0.55,0.55 0 0 1 -0.27,-0.29 0.56,0.56 0 0 1 0.35,-0.75 z m -15.35,-6 a 8.62,8.62 0 0 0 1.65,-4.17 L 56.05,7 A 1.28,1.28 0 0 1 56.1,6.73 2.87,2.87 0 0 1 59.51,4.5 46.5,46.5 0 0 1 66.8,6.61 l 0.24,0.1 a 2.9,2.9 0 0 1 1.3,3.88 l -4.28,8.59 A 2.9,2.9 0 0 1 60.5,20.61 30.15,30.15 0 0 0 56.39,19.45 8.93,8.93 0 0 0 54.08,19.29 0.67,0.67 0 0 1 53.71,19.18 0.6,0.6 0 0 1 53.58,18.36 Z M 35.46,5.8 a 45.57,45.57 0 0 1 7.38,-1.8 1.24,1.24 0 0 1 0.27,0 2.88,2.88 0 0 1 3.06,2.7 l 0.6,9.57 a 2.89,2.89 0 0 1 -2.38,3 32.44,32.44 0 0 0 -4.13,1.05 8.8,8.8 0 0 0 -2.09,1 0.62,0.62 0 0 1 -0.38,0.09 0.58,0.58 0 0 1 -0.51,-0.64 8.78,8.78 0 0 0 -0.66,-4.44 L 33.71,9.7 A 1.34,1.34 0 0 1 33.62,9.44 2.87,2.87 0 0 1 35.46,5.8 Z M 15.3,19 a 47,47 0 0 1 5.51,-5.23 L 21,13.6 a 2.89,2.89 0 0 1 4,0.82 l 5.3,8 a 2.9,2.9 0 0 1 -0.54,3.8 28.61,28.61 0 0 0 -3.05,3 8.63,8.63 0 0 0 -1.31,1.91 0.63,0.63 0 0 1 -0.28,0.28 0.58,0.58 0 0 1 -0.76,-0.3 8.77,8.77 0 0 0 -2.8,-3.52 L 15.71,23.27 A 1.73,1.73 0 0 1 15.5,23.1 2.89,2.89 0 0 1 15.3,19 Z M 6.59,33.2 c 0,-0.08 0.07,-0.16 0.11,-0.25 a 2.9,2.9 0 0 1 3.88,-1.29 l 8.58,4.28 a 2.88,2.88 0 0 1 1.44,3.55 31.42,31.42 0 0 0 -1.16,4.11 8.55,8.55 0 0 0 -0.17,2.31 0.58,0.58 0 0 1 -0.11,0.38 0.58,0.58 0 0 1 -0.81,0.12 8.66,8.66 0 0 0 -4.18,-1.64 L 6.94,44 H 6.68 A 2.89,2.89 0 0 1 4.44,40.58 47.6,47.6 0 0 1 6.59,33.2 Z"
     style="fill:#ff8888;fill-rule:evenodd"
     id="path829"
     inkscape:connector-curvature="0" />
</svg>
