<?xml version="1.0" encoding="UTF-8" standalone="no"?>
<svg
   xmlns:dc="http://purl.org/dc/elements/1.1/"
   xmlns:cc="http://creativecommons.org/ns#"
   xmlns:rdf="http://www.w3.org/1999/02/22-rdf-syntax-ns#"
   xmlns:svg="http://www.w3.org/2000/svg"
   xmlns="http://www.w3.org/2000/svg"
   xmlns:sodipodi="http://sodipodi.sourceforge.net/DTD/sodipodi-0.dtd"
   xmlns:inkscape="http://www.inkscape.org/namespaces/inkscape"
   id="Layer_1"
   data-name="Layer 1"
   viewBox="0 0 120 120"
   version="1.1"
   sodipodi:docname="Icon-Cancel-B.svg"
   inkscape:version="0.92.2 (5c3e80d, 2017-08-06)">
  <metadata
     id="metadata839">
    <rdf:RDF>
      <cc:Work
         rdf:about="">
        <dc:format>image/svg+xml</dc:format>
        <dc:type
           rdf:resource="http://purl.org/dc/dcmitype/StillImage" />
        <dc:title>Icon-Play</dc:title>
      </cc:Work>
    </rdf:RDF>
  </metadata>
  <sodipodi:namedview
     pagecolor="#ffffff"
     bordercolor="#666666"
     borderopacity="1"
     objecttolerance="10"
     gridtolerance="10"
     guidetolerance="10"
     inkscape:pageopacity="0"
     inkscape:pageshadow="2"
     inkscape:window-width="1920"
     inkscape:window-height="1017"
     id="namedview837"
     showgrid="false"
     inkscape:zoom="7.0666667"
     inkscape:cx="35.872642"
     inkscape:cy="56.831594"
     inkscape:window-x="-8"
     inkscape:window-y="-8"
     inkscape:window-maximized="1"
     inkscape:current-layer="Layer_1" />
  <defs
     id="defs830">
    <style
       id="style828">.cls-1{fill:#fff;}</style>
  </defs>
  <title
     id="title832">Icon-Play</title>
  <path
     inkscape:connector-curvature="0"
     class="cls-1"
     d="m 119.99097,59.988765 c 0,24.080002 -15.29,46.430005 -37.470002,55.610005 -22.719999,9.4 -48.999999,3.39 -65.889999,-14.31 A 59.86,59.86 0 0 1 5.5409691,34.758765 C 15.770969,12.988765 38.810969,-1.1312347 62.920969,0.05876534 94.140968,1.5887653 119.99097,28.748765 119.99097,59.988765 Z m -5.52,0.08 c 0,-24.22 -16.760002,-45.91 -40.000002,-52.4399997 C 50.910969,0.98876534 25.350969,11.788765 12.990969,32.688765 a 54.36,54.36 0 0 0 8.6,65.820002 c 17,16.820003 43.31,21.000003 64.329999,9.390003 A 55.17,55.17 0 0 0 114.47097,60.048765 Z"
     id="path2013"
     style="fill:#ffffff" />
  <path
     class="cls-1"
     d="m 41.45879,93.307674 a 5.2445906,5.2445906 0 0 1 -1.727986,1.153641 5.1115503,5.1115503 0 0 1 -1.975548,0.401047 5.5176735,5.5176735 0 0 1 -2.005257,-0.381245 5.0275248,5.0275248 0 0 1 -1.74284,-1.138783 l -7.466484,-7.466488 a 4.7964547,4.7964547 0 0 1 -1.114031,-1.718081 5.6016989,5.6016989 0 0 1 -0.361441,-1.985451 5.0765397,5.0765397 0 0 1 0.3961,-1.9805 5.2585949,5.2585949 0 0 1 1.153641,-1.727986 L 78.533743,26.545029 a 5.265597,5.265597 0 0 1 1.727986,-1.153641 5.041529,5.041529 0 0 1 1.975549,-0.391148 5.5456819,5.5456819 0 0 1 1.995353,0.351538 4.698425,4.698425 0 0 1 1.723035,1.10908 l 7.456577,7.456582 a 4.9014866,4.9014866 0 0 1 1.13384,1.747791 5.4826628,5.4826628 0 0 1 0.376294,2.010207 5.0765397,5.0765397 0 0 1 -0.396103,1.970597 5.2515928,5.2515928 0 0 1 -1.148684,1.74284 z"
     id="path836"
     inkscape:connector-curvature="0"
     style="fill:#ffffff;fill-rule:evenodd;stroke-width:0.70021236" />
  <path
     class="cls-1"
     d="m 93.385061,78.606414 v 0 a 5.3426204,5.3426204 0 0 1 1.158592,1.723035 5.1675673,5.1675673 0 0 1 0.391146,1.985451 5.4406501,5.4406501 0 0 1 -0.376294,2.000304 5.0555333,5.0555333 0 0 1 -1.138783,1.742837 l -7.426871,7.42687 a 4.9925142,4.9925142 0 0 1 -1.737888,1.13384 5.433648,5.433648 0 0 1 -2.005257,0.381245 A 5.1325567,5.1325567 0 0 1 80.269207,94.603893 5.2445906,5.2445906 0 0 1 78.546172,93.4453 L 26.627376,41.526506 a 5.2445906,5.2445906 0 0 1 -1.158593,-1.723034 5.097546,5.097546 0 0 1 -0.391149,-1.975548 5.4056395,5.4056395 0 0 1 0.366392,-2.010208 4.9014866,4.9014866 0 0 1 1.133837,-1.747791 l 7.426874,-7.426874 a 4.9505014,4.9505014 0 0 1 1.747786,-1.133831 5.4056395,5.4056395 0 0 1 2.005256,-0.371344 5.1325567,5.1325567 0 0 1 1.9805,0.386197 5.3496225,5.3496225 0 0 1 1.727986,1.163544 z"
     id="path838"
     inkscape:connector-curvature="0"
     style="fill:#ffffff;fill-rule:evenodd;stroke-width:0.70021236" />
</svg>
