<svg xmlns="http://www.w3.org/2000/svg" viewBox="0 0 140 70"><title>Icon-ReelSmart</title><path d="M36,70a34,34,0,0,1,67.92-2.08c0,.7.06,1.39.06,2.08h36c0-1.43,0-2.85-.12-4.3A70,70,0,0,0,0,70Zm90.77-22.93a4.07,4.07,0,0,1,5.12,2.58A65.7,65.7,0,0,1,134.38,60c0,.12,0,.25,0,.37a4.05,4.05,0,0,1-3.8,4.29l-13.4.83A4.06,4.06,0,0,1,113,62.16a44.23,44.23,0,0,0-1.47-5.79,12,12,0,0,0-1.41-2.91.82.82,0,0,1-.14-.54.83.83,0,0,1,.9-.72,12.26,12.26,0,0,0,6.22-.93l9.34-4.06ZM96.5,34.16a12.06,12.06,0,0,0,4.91-3.92l6.06-8.2a3.22,3.22,0,0,1,.24-.28,4,4,0,0,1,5.71-.32,64.27,64.27,0,0,1,7.32,7.71c.08.09.15.2.23.3a4,4,0,0,1-1.14,5.6l-11.19,7.42a4.06,4.06,0,0,1-5.33-.75,42.14,42.14,0,0,0-4.17-4.28,12.18,12.18,0,0,0-2.68-1.82.76.76,0,0,1-.38-.41A.78.78,0,0,1,96.5,34.16ZM75,25.7a12.15,12.15,0,0,0,2.3-5.84L78.47,9.74a2.58,2.58,0,0,1,.06-.37,4,4,0,0,1,4.79-3.13,64.45,64.45,0,0,1,10.19,3,2.55,2.55,0,0,1,.35.14,4,4,0,0,1,1.82,5.42l-6,12a4.07,4.07,0,0,1-5,2A45.4,45.4,0,0,0,79,27.23,12.58,12.58,0,0,0,75.71,27a.88.88,0,0,1-.52-.15A.83.83,0,0,1,75,25.7ZM49.64,8.12A64.58,64.58,0,0,1,60,5.64a2.33,2.33,0,0,1,.38,0,4,4,0,0,1,4.28,3.78l.83,13.4A4,4,0,0,1,62.15,27a43.69,43.69,0,0,0-5.78,1.47,12,12,0,0,0-2.93,1.42.81.81,0,0,1-1.25-.77,12.19,12.19,0,0,0-.93-6.22l-4.07-9.34a3.62,3.62,0,0,1-.13-.35A4,4,0,0,1,49.64,8.12ZM21.42,26.58a66.69,66.69,0,0,1,7.71-7.32l.3-.22A4,4,0,0,1,35,20.18l7.42,11.19a4,4,0,0,1-.75,5.32,43.23,43.23,0,0,0-4.28,4.17,12.23,12.23,0,0,0-1.83,2.68.8.8,0,0,1-.4.39.82.82,0,0,1-1.06-.42,12.09,12.09,0,0,0-3.92-4.92L22,32.53a3.11,3.11,0,0,1-.28-.23A4,4,0,0,1,21.42,26.58ZM9.23,46.48l.15-.34a4.06,4.06,0,0,1,5.43-1.82l12,6a4,4,0,0,1,2,5,44.42,44.42,0,0,0-1.63,5.76A12.47,12.47,0,0,0,27,64.28a.8.8,0,0,1-1.29.69,12.07,12.07,0,0,0-5.85-2.29L9.72,61.53l-.37-.06a4.06,4.06,0,0,1-3.14-4.79A66.29,66.29,0,0,1,9.23,46.48Z" style="fill:#009ee3;fill-rule:evenodd"/></svg>