<svg id="Layer_1" data-name="Layer 1" xmlns="http://www.w3.org/2000/svg" viewBox="0 0 120 120"><defs><style>.cls-1{fill:#fff;}</style></defs><title>Icon-NameColour</title><path class="cls-1" d="M29.39,91.18v15.73H66.07v2.63H26.76v-21H66.07v2.6Zm28.8,13.1H32V93.81H58.18ZM68.68,80.71H63.44V78.08h5.23ZM63.44,117.4h5.23V120H63.44Zm5.23-36.55h5.23v36.45H68.68Zm5.23-2.76h5.26v2.63H73.91ZM79.17,120H73.91v-2.6h5.26ZM89.64,88.57v21H76.54v-2.63H87V91.18H76.54v-2.6Z"/><path class="cls-1" d="M33.48,9.34a40.06,40.06,0,0,1,9.25-5.77A40.53,40.53,0,0,1,63.24.19a41.41,41.41,0,0,1,10.14,2.3A40.36,40.36,0,0,1,90.72,14.77,51.8,51.8,0,0,1,96.39,23a42,42,0,0,1,3.25,7.5,33.72,33.72,0,0,1,1.43,6.73,41.7,41.7,0,0,1,.18,5.92c-.09,1.84-.23,3.54-.46,5.09s-.4,3-.53,4.19a20.37,20.37,0,0,1-.89,4.27A28.59,28.59,0,0,1,97.61,61a27.81,27.81,0,0,1-2.36,3.9,16.27,16.27,0,0,1-2.74,3,9.44,9.44,0,0,1-2.19,1.38,4.38,4.38,0,0,1-2.21.37,7.67,7.67,0,0,1-5.55-2.82A11,11,0,0,1,81,64.27c-.42-.94-.82-1.9-1.18-2.87S79,59.5,78.64,58.58a10.46,10.46,0,0,0-1.5-2.47,6.88,6.88,0,0,0-1.89-1.59,6.55,6.55,0,0,0-2.65-.78,7.48,7.48,0,0,0-3.91.7,17.64,17.64,0,0,0-3.75,2.41,31.16,31.16,0,0,0-3.48,3.38q-1.64,1.88-3.06,3.65c-.95,1.18-1.79,2.24-2.52,3.17a13.28,13.28,0,0,1-1.82,2,10.7,10.7,0,0,1-2.37,1.32,22.55,22.55,0,0,1-3.89,1.24,30.15,30.15,0,0,1-4.85.7,21.41,21.41,0,0,1-5.28-.3,18.91,18.91,0,0,1-5.15-1.75A14.16,14.16,0,0,1,28,66.59a40.43,40.43,0,0,1-8.8-19.35,40.71,40.71,0,0,1,6.82-29.9A40.09,40.09,0,0,1,33.48,9.34ZM37,48.39a6.29,6.29,0,0,0,1.62-2A6.45,6.45,0,0,0,39.3,44a6.76,6.76,0,0,0-.24-2.48,6.33,6.33,0,0,0-1.22-2.28,6.17,6.17,0,0,0-2-1.61A6.67,6.67,0,0,0,33.47,37,6.58,6.58,0,0,0,31,37.2a6.19,6.19,0,0,0-2.27,1.21,6.33,6.33,0,0,0-1.62,2,6.55,6.55,0,0,0-.7,2.39,6.46,6.46,0,0,0,.24,2.46,6.36,6.36,0,0,0,1.22,2.25,6.47,6.47,0,0,0,4.38,2.35A6.51,6.51,0,0,0,37,48.39ZM48.76,62.64a6.29,6.29,0,0,0,1.62-2,6.37,6.37,0,0,0,.7-2.37,6.58,6.58,0,0,0-.24-2.48,6.24,6.24,0,0,0-1.21-2.27,6.15,6.15,0,0,0-2-1.61,6.62,6.62,0,0,0-4.85-.46,6.11,6.11,0,0,0-2.27,1.21,6.24,6.24,0,0,0-1.62,2,6.79,6.79,0,0,0-.7,2.39,6.59,6.59,0,0,0,.24,2.46,6.33,6.33,0,0,0,1.22,2.26A6.46,6.46,0,0,0,44,64.11a6.34,6.34,0,0,0,2.47-.25A6.42,6.42,0,0,0,48.76,62.64ZM41.33,30.4a6.29,6.29,0,0,0,1.62-2,6.44,6.44,0,0,0,.7-2.36,6.51,6.51,0,0,0-.24-2.48,6.34,6.34,0,0,0-1.22-2.28,6.2,6.2,0,0,0-2-1.61A6.49,6.49,0,0,0,37.81,19a6.28,6.28,0,0,0-2.46.24,6.35,6.35,0,0,0-2.25,1.22,6.49,6.49,0,0,0-1.64,2,6.25,6.25,0,0,0-.71,2.38A6.35,6.35,0,0,0,31,27.28a6.27,6.27,0,0,0,1.21,2.25,6.43,6.43,0,0,0,9.12.87Zm5.13-12.65a6.51,6.51,0,0,0,2,1.64,6.3,6.3,0,0,0,2.38.71,6.42,6.42,0,0,0,2.46-.24,6.54,6.54,0,0,0,3.87-3.2,6.42,6.42,0,0,0,.71-2.37,6.62,6.62,0,0,0-.24-2.48,6.34,6.34,0,0,0-1.22-2.28,6.2,6.2,0,0,0-2-1.61A6.61,6.61,0,0,0,52,7.24a6.51,6.51,0,0,0-6.33,3.45,6.43,6.43,0,0,0-.46,4.82A6.36,6.36,0,0,0,46.46,17.76ZM91.88,51a6.29,6.29,0,0,0,1.62-2,6.42,6.42,0,0,0,.7-2.37A6.71,6.71,0,0,0,94,44.15a6.35,6.35,0,0,0-1.22-2.28,6.16,6.16,0,0,0-2-1.61,6.65,6.65,0,0,0-4.86-.46A6.18,6.18,0,0,0,83.63,41,6.32,6.32,0,0,0,82,43a6.63,6.63,0,0,0-.7,2.39,6.41,6.41,0,0,0,.25,2.46,6.32,6.32,0,0,0,1.22,2.25,6.51,6.51,0,0,0,2,1.64A6.42,6.42,0,0,0,91.88,51ZM65.75,7.81a6.15,6.15,0,0,0-1.6,2,6.57,6.57,0,0,0-.69,2.39,6.43,6.43,0,0,0,.24,2.45,6.33,6.33,0,0,0,1.22,2.25A6.37,6.37,0,0,0,71.75,19a6.54,6.54,0,0,0,3.87-3.2,6.48,6.48,0,0,0,.71-2.36A6.84,6.84,0,0,0,76.09,11a6.38,6.38,0,0,0-1.22-2.28,6.22,6.22,0,0,0-2-1.61,6.76,6.76,0,0,0-2.38-.69A6.62,6.62,0,0,0,68,6.6,6.19,6.19,0,0,0,65.75,7.81ZM85.78,32a6.28,6.28,0,0,0,1.62-2,6.4,6.4,0,0,0,.7-2.37,6.66,6.66,0,0,0-.24-2.48,6.29,6.29,0,0,0-1.21-2.28,6.19,6.19,0,0,0-2-1.61,6.6,6.6,0,0,0-4.85-.46,6.37,6.37,0,0,0-3.87,3.2,6.82,6.82,0,0,0-.7,2.38,6.56,6.56,0,0,0,.25,2.46,6.31,6.31,0,0,0,1.22,2.26,6.4,6.4,0,0,0,6.83,2.1A6.24,6.24,0,0,0,85.78,32Z"/></svg>