<svg xmlns="http://www.w3.org/2000/svg" viewBox="0 0 141 141"><title>Icon-Menu-Grid-Reprint-Inverse</title><polygon points="69.05 20.88 100.58 9.22 100.58 93.81 38.98 127.11 38.98 89.04 69.01 75.49 69.05 20.88" style="fill:#d0cdcd;fill-rule:evenodd"/><polygon points="69.05 20.88 36.17 10.5 69.13 0.1 100.58 9.22 69.05 20.88" style="fill:#e1e0e0;fill-rule:evenodd"/><polygon points="36.17 10.5 36.17 62.46 69.01 75.49 69.05 20.88 36.17 10.5" style="fill:#626363;fill-rule:evenodd"/><polygon points="69.01 75.49 38.98 89.04 5.5 73.87 36.17 62.46 69.01 75.49" style="fill:#e1e0e0;fill-rule:evenodd"/><polygon points="38.98 127.11 6.1 109.55 5.5 73.87 38.98 89.04 38.98 127.11" style="fill:#626363;fill-rule:evenodd"/><path d="M70.34,108.32a32.58,32.58,0,1,1,32.58,32.58A32.58,32.58,0,0,1,70.34,108.32Z" style="fill:#fff;fill-rule:evenodd"/><path d="M123.4,112.26a21.94,21.94,0,0,1-1.48,4.78,23.19,23.19,0,0,1-2.42,4.24,21.47,21.47,0,0,1-3.23,3.56,21.25,21.25,0,0,1-3.88,2.7,20.31,20.31,0,0,1-4.38,1.74,18.94,18.94,0,0,1-4.76.61,18.23,18.23,0,0,1-4.25-.5,19.53,19.53,0,0,1-4-1.4,19.85,19.85,0,0,1-3.58-2.21,21.26,21.26,0,0,1-3.08-2.92L81.26,130V112.26H99l-7,7a14.17,14.17,0,0,0,5,3.53,15.68,15.68,0,0,0,6.23,1.24,16,16,0,0,0,5.09-.81,14.46,14.46,0,0,0,4.37-2.33,14.12,14.12,0,0,0,5.2-8.6Z" style="fill:#009ee3"/><path d="M124.59,86.92v17.46H106.87l6.95-6.84a14,14,0,0,0-5-3.69,15.42,15.42,0,0,0-6.33-1.3,15.62,15.62,0,0,0-5.07.83A14.76,14.76,0,0,0,93,95.74a14.37,14.37,0,0,0-3.32,3.74,14.57,14.57,0,0,0-1.88,4.9H82.3a21.92,21.92,0,0,1,1.49-4.78,22.32,22.32,0,0,1,2.44-4.26,23.73,23.73,0,0,1,3.22-3.57A20.8,20.8,0,0,1,93.33,89a19.36,19.36,0,0,1,4.38-1.75,18.32,18.32,0,0,1,9.06-.1,19.42,19.42,0,0,1,4,1.46,20.6,20.6,0,0,1,3.6,2.28,21.57,21.57,0,0,1,3.11,3Z" style="fill:#009ee3"/></svg>