<svg xmlns="http://www.w3.org/2000/svg" viewBox="0 0 99 64"><title>Icon-Move-X+10</title><polygon points="99 32 70 0 70 8 0 8 0 56 70 56 70 64 99 32" style="fill:#646464;fill-rule:evenodd"/><path d="M24.89,32.59H20.45v-.91h4.44V26.85h1v4.83h4.45v.91H25.87v4.82h-1Z" style="fill:#fff"/><path d="M33.15,39.12h3.6V26.4H34v-.72a9.27,9.27,0,0,0,3-1h.87v14.4h3.33v.94h-8Z" style="fill:#fff"/><path d="M43.78,32.33c0-5.09,1.66-7.9,4.58-7.9S53,27.24,53,32.33s-1.66,8-4.59,8S43.78,37.44,43.78,32.33Zm8.09,0c0-4.68-1.37-7-3.51-7s-3.5,2.31-3.5,7,1.39,7.1,3.5,7.1S51.87,37,51.87,32.33Z" style="fill:#fff"/></svg>