<svg xmlns="http://www.w3.org/2000/svg" viewBox="0 0 140 70"><title>Icon-ReelCustom</title><path d="M140,70V60.07a3.45,3.45,0,0,0-.73-2.15,3,3,0,0,0-1.92-1.14l-16.68-2.55a54.13,54.13,0,0,0-3.73-8.93q1.64-2.28,4.92-6.43t4.65-6a3.61,3.61,0,0,0,.73-2.1,2.92,2.92,0,0,0-.64-2q-3.28-4.65-15-15.49a3.53,3.53,0,0,0-2.28-.92,3,3,0,0,0-2.18.82L94.15,22.88A56.54,56.54,0,0,0,86,19.5L83.4,2.73A2.7,2.7,0,0,0,82.35.78,3.43,3.43,0,0,0,80.12,0H59.88A3.07,3.07,0,0,0,56.6,2.55,148.89,148.89,0,0,0,54,19.5,52.76,52.76,0,0,0,45.66,23L33.09,13.22a3.91,3.91,0,0,0-2.38-.92q-2,0-8.61,6.52a88.92,88.92,0,0,0-9,9.8,3.85,3.85,0,0,0-.83,2.1,3.47,3.47,0,0,0,.91,2.18Q19.32,40.3,23,45.48a45.67,45.67,0,0,0-3.56,8.39L2.46,56.42A2.74,2.74,0,0,0,.73,57.6,3.5,3.5,0,0,0,0,59.7V70H36a34,34,0,0,1,68,0Z" style="fill:#009ee3"/></svg>