<svg xmlns="http://www.w3.org/2000/svg" viewBox="0 0 120 120"><title>Icon-ProfileCustom</title><path d="M30.87,90a29.13,29.13,0,1,1,58.26,0H120V81.48a2.92,2.92,0,0,0-.63-1.83,2.42,2.42,0,0,0-1.64-1l-14.29-2.19a47.17,47.17,0,0,0-3.21-7.65c.94-1.31,2.34-3.14,4.22-5.51s3.2-4.1,4-5.19a3,3,0,0,0,.63-1.8,2.55,2.55,0,0,0-.54-1.72q-2.82-4-12.89-13.28a3,3,0,0,0-2-.78,2.54,2.54,0,0,0-1.88.7L80.7,49.61a48.62,48.62,0,0,0-7-2.89L71.48,32.35a2.31,2.31,0,0,0-.9-1.69A2.94,2.94,0,0,0,68.67,30H51.33a2.63,2.63,0,0,0-2.81,2.18,126.26,126.26,0,0,0-2.27,14.54,44.14,44.14,0,0,0-7.11,3L28.35,41.33a3.24,3.24,0,0,0-2-.78q-1.72,0-7.39,5.58a76.59,76.59,0,0,0-7.69,8.4,3.29,3.29,0,0,0-.71,1.8,2.91,2.91,0,0,0,.79,1.87Q16.55,64.53,19.69,69a38.44,38.44,0,0,0-3.05,7.19L2.1,78.36a2.37,2.37,0,0,0-1.48,1A3,3,0,0,0,0,81.17V90Z" style="fill:#fff"/></svg>