<svg xmlns="http://www.w3.org/2000/svg" viewBox="0 0 67 94"><title>Icon-Move-Y-10</title><polygon points="27.99 94 64.16 65 56.14 65 67 0 18.88 0 8.02 65 0 65 27.99 94" style="fill:#646464;fill-rule:evenodd"/><path d="M21.5,32.88h5.28l-.13.94H21.37Z" style="fill:#fff"/><path d="M29,38.4h3.6l1.79-12.71H31.6l.11-.72a10.78,10.78,0,0,0,3.08-1h.87l-2,14.39H37l-.13.94h-8Z" style="fill:#fff"/><path d="M40.54,31.61c.72-5.08,2.77-7.89,5.69-7.89s4.19,2.81,3.48,7.89-2.78,8-5.71,8S39.82,36.72,40.54,31.61Zm8.09,0c.66-4.68-.39-7-2.52-7s-3.83,2.3-4.49,7,.39,7.11,2.51,7.11S48,36.29,48.63,31.61Z" style="fill:#fff"/></svg>