<svg xmlns="http://www.w3.org/2000/svg" viewBox="0 0 120 120"><title>Icon-ProfileFine</title><rect y="118.78" width="120" height="1.22" style="fill:#fff"/><rect x="3.05" y="115.74" width="116.95" height="1.22" style="fill:#fff"/><rect x="6.09" y="112.69" width="113.91" height="1.22" style="fill:#fff"/><rect x="9.14" y="109.64" width="110.86" height="1.22" style="fill:#fff"/><rect x="12.19" y="106.6" width="107.81" height="1.22" style="fill:#fff"/><rect x="15.23" y="103.55" width="104.77" height="1.22" style="fill:#fff"/><rect x="18.28" y="100.51" width="101.72" height="1.22" style="fill:#fff"/><rect x="21.32" y="97.46" width="98.68" height="1.22" style="fill:#fff"/><rect x="24.37" y="94.42" width="95.63" height="1.22" style="fill:#fff"/><rect x="27.41" y="91.37" width="92.59" height="1.22" style="fill:#fff"/><rect x="30.46" y="88.33" width="89.54" height="1.22" style="fill:#fff"/><rect x="33.5" y="85.28" width="86.5" height="1.22" style="fill:#fff"/><rect x="36.55" y="82.23" width="83.45" height="1.22" style="fill:#fff"/><rect x="39.6" y="79.19" width="80.4" height="1.21" style="fill:#fff"/><rect x="42.64" y="76.14" width="77.36" height="1.22" style="fill:#fff"/><rect x="45.69" y="73.1" width="74.31" height="1.22" style="fill:#fff"/><rect x="48.73" y="70.05" width="71.27" height="1.22" style="fill:#fff"/><rect x="51.78" y="67.01" width="68.22" height="1.22" style="fill:#fff"/><rect x="54.83" y="63.96" width="65.17" height="1.22" style="fill:#fff"/><rect x="57.87" y="60.92" width="62.13" height="1.22" style="fill:#fff"/><rect x="60.91" y="57.87" width="59.09" height="1.22" style="fill:#fff"/><rect x="63.96" y="54.82" width="56.04" height="1.22" style="fill:#fff"/><rect x="67.01" y="51.78" width="52.99" height="1.22" style="fill:#fff"/><rect x="70.05" y="48.73" width="49.95" height="1.22" style="fill:#fff"/><rect x="73.1" y="45.69" width="46.9" height="1.22" style="fill:#fff"/><rect x="76.14" y="42.64" width="43.86" height="1.22" style="fill:#fff"/><rect x="79.19" y="39.59" width="40.81" height="1.22" style="fill:#fff"/><rect x="82.24" y="36.55" width="37.76" height="1.22" style="fill:#fff"/><rect x="85.28" y="33.5" width="34.72" height="1.22" style="fill:#fff"/><rect x="88.33" y="30.46" width="31.67" height="1.22" style="fill:#fff"/><rect x="91.37" y="27.41" width="28.63" height="1.22" style="fill:#fff"/><rect x="94.42" y="24.37" width="25.58" height="1.21" style="fill:#fff"/><rect x="97.46" y="21.32" width="22.54" height="1.22" style="fill:#fff"/><rect x="100.51" y="18.28" width="19.49" height="1.22" style="fill:#fff"/><rect x="103.55" y="15.23" width="16.45" height="1.22" style="fill:#fff"/><rect x="106.6" y="12.18" width="13.4" height="1.22" style="fill:#fff"/><rect x="109.65" y="9.14" width="10.35" height="1.21" style="fill:#fff"/><rect x="112.69" y="6.1" width="7.31" height="1.22" style="fill:#fff"/><rect x="115.73" y="3.04" width="4.27" height="1.22" style="fill:#fff"/><rect x="118.78" width="1.22" height="1.22" style="fill:#fff"/></svg>