<svg xmlns="http://www.w3.org/2000/svg" viewBox="0 0 130 100"><title>Icon-Menu-Grid-Control-Inverse</title><circle cx="34.71" cy="38.01" r="7.5" style="fill:#fff"/><circle cx="27.35" cy="81.72" r="5" style="fill:#fff"/><path d="M108.79,34h-9.5v-9.5a4,4,0,0,0-8,0V34h-9.5a4,4,0,0,0,0,8h9.5v9.5a4,4,0,1,0,8,0V42h9.5a4,4,0,0,0,0-8Z" style="fill:#fff;fill-rule:evenodd"/><path d="M110,0H20A20,20,0,0,0,0,20V80a20,20,0,0,0,20,20h90a20,20,0,0,0,20-20V20A20,20,0,0,0,110,0ZM46.35,88.72h-24a7,7,0,0,1,0-14h24a7,7,0,0,1,0,14Zm-11.64-25A25.71,25.71,0,1,1,60.43,38,25.71,25.71,0,0,1,34.71,63.72Zm50.08,25a7,7,0,1,1,7-7A7,7,0,0,1,84.79,88.72Zm21,0a7,7,0,1,1,7-7A7,7,0,0,1,105.79,88.72Zm-10.5-25A25.71,25.71,0,1,1,121,38,25.72,25.72,0,0,1,95.29,63.72Z" style="fill:#fff;fill-rule:evenodd"/><circle cx="105.79" cy="81.72" r="4" style="fill:#fff"/></svg>