<svg xmlns="http://www.w3.org/2000/svg" viewBox="0 0 140 70"><title>Icon-ReelUnknown</title><path d="M139.88,65.71A70,70,0,0,0,0,70H36a34,34,0,0,1,67.91-2.08c0,.69.06,1.39.06,2.08h36C140,68.58,140,67.15,139.88,65.71ZM70.71,30.28a2.13,2.13,0,0,1-3,0A2,2,0,0,1,67,28.77a2.06,2.06,0,0,1,.16-.84,1.94,1.94,0,0,1,.47-.68,2.16,2.16,0,0,1,1.53-.65,2.14,2.14,0,0,1,1.52.65,2.05,2.05,0,0,1,.64,1.52A2,2,0,0,1,70.71,30.28Zm5.05-16.56a8.35,8.35,0,0,1-.5.94,8.52,8.52,0,0,1-.61.87q-.33.41-.69.78a9.46,9.46,0,0,1-.74.69c-.26.21-.51.43-.74.64l-.69.63a6.76,6.76,0,0,0-1.1,1.33,2.69,2.69,0,0,0-.45,1.52,4,4,0,0,0,.18,1.28l.19.54.19.44H67.24q-.08-.21-.15-.48c0-.18-.09-.37-.13-.59a5.16,5.16,0,0,1-.08-.66c0-.21,0-.42,0-.64a4.11,4.11,0,0,1,.41-1.81,7.4,7.4,0,0,1,1-1.52l.65-.69c.22-.23.45-.45.68-.66s.48-.44.7-.66l.64-.62a6.73,6.73,0,0,0,1-1.32,2.83,2.83,0,0,0,.42-1.5A2.58,2.58,0,0,0,72.1,11a2.87,2.87,0,0,0-.84-.93,2.62,2.62,0,0,0-.57-.32A4.14,4.14,0,0,0,70,9.47a6.72,6.72,0,0,0-.7-.13,6.28,6.28,0,0,0-.75,0,6.8,6.8,0,0,0-4.79,2.18V7.7a12,12,0,0,1,2.81-1.19,11.12,11.12,0,0,1,2.93-.39,9.18,9.18,0,0,1,2.57.34,6.2,6.2,0,0,1,2.13,1,4.79,4.79,0,0,1,1.44,1.66,5,5,0,0,1,.52,2.34A5.6,5.6,0,0,1,75.76,13.72Z" style="fill-rule:evenodd"/></svg>