<?xml version="1.0" encoding="UTF-8" standalone="no"?>
<svg
   xmlns:dc="http://purl.org/dc/elements/1.1/"
   xmlns:cc="http://creativecommons.org/ns#"
   xmlns:rdf="http://www.w3.org/1999/02/22-rdf-syntax-ns#"
   xmlns:svg="http://www.w3.org/2000/svg"
   xmlns="http://www.w3.org/2000/svg"
   xmlns:sodipodi="http://sodipodi.sourceforge.net/DTD/sodipodi-0.dtd"
   xmlns:inkscape="http://www.inkscape.org/namespaces/inkscape"
   id="Layer_1"
   data-name="Layer 1"
   viewBox="0 0 120 120"
   version="1.1"
   sodipodi:docname="Icon-Inc-B.svg"
   inkscape:version="0.92.2 (5c3e80d, 2017-08-06)">
  <metadata
     id="metadata839">
    <rdf:RDF>
      <cc:Work
         rdf:about="">
        <dc:format>image/svg+xml</dc:format>
        <dc:type
           rdf:resource="http://purl.org/dc/dcmitype/StillImage" />
        <dc:title>Icon-Play</dc:title>
      </cc:Work>
    </rdf:RDF>
  </metadata>
  <sodipodi:namedview
     pagecolor="#ffffff"
     bordercolor="#666666"
     borderopacity="1"
     objecttolerance="10"
     gridtolerance="10"
     guidetolerance="10"
     inkscape:pageopacity="0"
     inkscape:pageshadow="2"
     inkscape:window-width="1920"
     inkscape:window-height="1017"
     id="namedview837"
     showgrid="false"
     inkscape:zoom="7.0666667"
     inkscape:cx="35.872642"
     inkscape:cy="62.955456"
     inkscape:window-x="-8"
     inkscape:window-y="-8"
     inkscape:window-maximized="1"
     inkscape:current-layer="Layer_1" />
  <title
     id="title832">Icon-Play</title>
  <path
     inkscape:connector-curvature="0"
     d="m 119.99097,59.988765 c 0,24.080002 -15.29,46.430005 -37.470002,55.610005 -22.719999,9.4 -48.999999,3.39 -65.889999,-14.31 A 59.86,59.86 0 0 1 5.5409691,34.758765 C 15.770969,12.988765 38.810969,-1.1312347 62.920969,0.05876534 94.140968,1.5887653 119.99097,28.748765 119.99097,59.988765 Z m -5.52,0.08 c 0,-24.22 -16.760002,-45.91 -40.000002,-52.4399997 C 50.910969,0.98876534 25.350969,11.788765 12.990969,32.688765 a 54.36,54.36 0 0 0 8.6,65.820002 c 17,16.820003 43.31,21.000003 64.329999,9.390003 A 55.17,55.17 0 0 0 114.47097,60.048765 Z"
     id="path2013"
     style="fill:#ffffff;" />
  <path
     d="m 70.48831,96.638149 a 5.2445906,5.2445906 0 0 1 -0.406123,2.037618 5.1115503,5.1115503 0 0 1 -1.11334,1.680503 5.5176735,5.5176735 0 0 1 -1.687512,1.14835 5.0275248,5.0275248 0 0 1 -2.037615,0.42714 l -10.559206,-1e-5 a 4.7964547,4.7964547 0 0 1 -2.002606,-0.42712 5.6016989,5.6016989 0 0 1 -1.659503,-1.14835 5.0765397,5.0765397 0 0 1 -1.12034,-1.680513 5.2585949,5.2585949 0 0 1 -0.406123,-2.037618 l 0,-73.42427 a 5.265597,5.265597 0 0 1 0.406123,-2.037618 5.041529,5.041529 0 0 1 1.120341,-1.673508 5.5456819,5.5456819 0 0 1 1.659502,-1.162352 4.698425,4.698425 0 0 1 2.002608,-0.434132 l 10.545196,3e-6 a 4.9014866,4.9014866 0 0 1 2.037621,0.434129 5.4826628,5.4826628 0 0 1 1.687511,1.155351 5.0765397,5.0765397 0 0 1 1.113335,1.67351 5.2515928,5.2515928 0 0 1 0.420132,2.044616 z"
     id="path836"
     inkscape:connector-curvature="0"
	 fill="rgb(255,200,0)"
     style="fill-opacity:1;fill-rule:evenodd;stroke-width:0.70021236" />
  <path
     d="m 96.716605,49.574401 v 0 a 5.3426204,5.3426204 0 0 1 2.037618,0.399122 5.1675673,5.1675673 0 0 1 1.680507,1.127344 5.4406501,5.4406501 0 0 1 1.14835,1.680508 5.0555333,5.0555333 0 0 1 0.42713,2.037613 l 0,10.503181 a 4.9925142,4.9925142 0 0 1 -0.42713,2.030618 5.433648,5.433648 0 0 1 -1.14835,1.687512 5.1325567,5.1325567 0 0 1 -1.680508,1.120337 5.2445906,5.2445906 0 0 1 -2.037619,0.399121 l -73.424264,2e-6 a 5.2445906,5.2445906 0 0 1 -2.037618,-0.399121 5.097546,5.097546 0 0 1 -1.673507,-1.120339 5.4056395,5.4056395 0 0 1 -1.162354,-1.68051 4.9014866,4.9014866 0 0 1 -0.434131,-2.037618 l 0,-10.503186 a 4.9505014,4.9505014 0 0 1 0.434132,-2.037611 5.4056395,5.4056395 0 0 1 1.15535,-1.68051 5.1325567,5.1325567 0 0 1 1.673508,-1.127343 5.3496225,5.3496225 0 0 1 2.04462,-0.399121 z"
     id="path838"
     inkscape:connector-curvature="0"
	 fill="rgb(255,200,0)"
     style="fill-opacity:1;fill-rule:evenodd;stroke-width:0.70021236" />
</svg>
