<?xml version="1.0" encoding="UTF-8" standalone="no"?>
<svg
   xmlns:dc="http://purl.org/dc/elements/1.1/"
   xmlns:cc="http://creativecommons.org/ns#"
   xmlns:rdf="http://www.w3.org/1999/02/22-rdf-syntax-ns#"
   xmlns:svg="http://www.w3.org/2000/svg"
   xmlns="http://www.w3.org/2000/svg"
   xmlns:sodipodi="http://sodipodi.sourceforge.net/DTD/sodipodi-0.dtd"
   xmlns:inkscape="http://www.inkscape.org/namespaces/inkscape"
   id="Layer_1"
   data-name="Layer 1"
   viewBox="0 0 120 120"
   version="1.1"
   sodipodi:docname="Icon-Pause-B.svg"
   inkscape:version="0.92.2 (5c3e80d, 2017-08-06)">
  <metadata
     id="metadata839">
    <rdf:RDF>
      <cc:Work
         rdf:about="">
        <dc:format>image/svg+xml</dc:format>
        <dc:type
           rdf:resource="http://purl.org/dc/dcmitype/StillImage" />
        <dc:title>Icon-Play</dc:title>
      </cc:Work>
    </rdf:RDF>
  </metadata>
  <sodipodi:namedview
     pagecolor="#ffffff"
     bordercolor="#666666"
     borderopacity="1"
     objecttolerance="10"
     gridtolerance="10"
     guidetolerance="10"
     inkscape:pageopacity="0"
     inkscape:pageshadow="2"
     inkscape:window-width="1920"
     inkscape:window-height="1017"
     id="namedview837"
     showgrid="false"
     inkscape:zoom="7.0666667"
     inkscape:cx="35.872642"
     inkscape:cy="56.831594"
     inkscape:window-x="-8"
     inkscape:window-y="-8"
     inkscape:window-maximized="1"
     inkscape:current-layer="Layer_1" />
  <defs
     id="defs830">
    <style
       id="style828">.cls-1{fill:#fff;}</style>
  </defs>
  <title
     id="title832">Icon-Play</title>
  <path
     inkscape:connector-curvature="0"
     class="cls-1"
     d="m 119.99097,59.988765 c 0,24.080002 -15.29,46.430005 -37.470002,55.610005 -22.719999,9.4 -48.999999,3.39 -65.889999,-14.31 A 59.86,59.86 0 0 1 5.5409691,34.758765 C 15.770969,12.988765 38.810969,-1.1312347 62.920969,0.05876534 94.140968,1.5887653 119.99097,28.748765 119.99097,59.988765 Z m -5.52,0.08 c 0,-24.22 -16.760002,-45.91 -40.000002,-52.4399997 C 50.910969,0.98876534 25.350969,11.788765 12.990969,32.688765 a 54.36,54.36 0 0 0 8.6,65.820002 c 17,16.820003 43.31,21.000003 64.329999,9.390003 A 55.17,55.17 0 0 0 114.47097,60.048765 Z"
     id="path2013"
     style="fill:#ffffff" />
  <path
     inkscape:connector-curvature="0"
     class="cls-1"
     d="m 51.244179,90.58996 a 4.3691584,4.3691584 0 0 1 -0.338333,1.697497 4.2583253,4.2583253 0 0 1 -0.927498,1.399997 4.596658,4.596658 0 0 1 -1.405831,0.956665 4.1883254,4.1883254 0 0 1 -1.697497,0.355833 H 38.07837 A 3.9958258,3.9958258 0 0 1 36.41004,94.644119 4.6666578,4.6666578 0 0 1 35.027543,93.687454 4.2291587,4.2291587 0 0 1 34.094211,92.287457 4.380825,4.380825 0 0 1 33.755878,90.58996 V 29.421738 a 4.3866584,4.3866584 0 0 1 0.338333,-1.697496 4.199992,4.199992 0 0 1 0.933332,-1.394165 4.6199913,4.6199913 0 0 1 1.382497,-0.968331 3.9141593,3.9141593 0 0 1 1.66833,-0.361666 h 8.784983 a 4.0833256,4.0833256 0 0 1 1.697497,0.361666 4.5674914,4.5674914 0 0 1 1.405831,0.962498 4.2291587,4.2291587 0 0 1 0.927498,1.394164 4.3749917,4.3749917 0 0 1 0.35,1.70333 z"
     id="path3716"
     style="fill:#ffffff;stroke-width:0.58333224" />
  <path
     inkscape:connector-curvature="0"
     class="cls-1"
     d="m 86.244112,90.58996 v 0 a 4.4508249,4.4508249 0 0 1 -0.3325,1.697497 4.3049919,4.3049919 0 0 1 -0.939165,1.399997 4.5324914,4.5324914 0 0 1 -1.399997,0.956665 4.2116587,4.2116587 0 0 1 -1.697498,0.355833 H 73.124968 A 4.1591588,4.1591588 0 0 1 71.433305,94.644119 4.5266581,4.5266581 0 0 1 70.027474,93.687454 4.2758252,4.2758252 0 0 1 69.094142,92.287457 4.3691584,4.3691584 0 0 1 68.761643,90.58996 V 29.421738 a 4.3691584,4.3691584 0 0 1 0.332499,-1.697496 4.2466586,4.2466586 0 0 1 0.933332,-1.394165 4.5033248,4.5033248 0 0 1 1.399997,-0.968331 4.0833256,4.0833256 0 0 1 1.697497,-0.361666 h 8.749984 a 4.1241589,4.1241589 0 0 1 1.697498,0.361666 4.5033248,4.5033248 0 0 1 1.399997,0.962498 4.2758252,4.2758252 0 0 1 0.939165,1.394164 4.4566582,4.4566582 0 0 1 0.3325,1.70333 z"
     id="path3718"
     style="fill:#ffffff;stroke-width:0.58333224" />
</svg>
